<svg width="32" height="32" viewBox="0 0 32 32" fill="none" xmlns="http://www.w3.org/2000/svg">
  <!-- Car body -->
  <path d="M6 12h20c1.1 0 2 .9 2 2v6c0 1.1-.9 2-2 2H6c-1.1 0-2-.9-2-2v-6c0-1.1.9-2 2-2z" fill="#3b82f6"/>
  
  <!-- Car roof -->
  <path d="M8 12h16c1.1 0 2 .9 2 2v4c0 1.1-.9 2-2 2H8c-1.1 0-2-.9-2-2v-4c0-1.1.9-2 2-2z" fill="#1d4ed8"/>
  
  <!-- Windshield -->
  <path d="M9 13h14v3H9v-3z" fill="#93c5fd"/>
  
  <!-- Wheels -->
  <circle cx="9" cy="22" r="2.5" fill="#1f2937"/>
  <circle cx="23" cy="22" r="2.5" fill="#1f2937"/>
  
  <!-- Wheel centers -->
  <circle cx="9" cy="22" r="1" fill="#6b7280"/>
  <circle cx="23" cy="22" r="1" fill="#6b7280"/>
  
  <!-- Headlights -->
  <circle cx="26" cy="14" r="1.5" fill="#fbbf24"/>
  <circle cx="6" cy="14" r="1.5" fill="#fbbf24"/>
  
  <!-- Grille -->
  <rect x="12" y="10" width="8" height="2" rx="1" fill="#1f2937"/>
</svg>

